PathFileType	3	(X/Y/Z)	results
DataRate	CameraRate	NumFrames	NumMarkers	Units	OrigDataRate	OrigDataStartFrame	OrigNumFrames
30.0	30.0	4	85	mm	30.0	68	179
Frame#	Time	head			nose			neck			shoulder_r			elbow_r			wrist_r			shoulder_l			elbow_l			wrist_l			hip_r			knee_r			ankle_r			hip_l			knee_l			ankle_l			heel_r			heel_l			mtoe_r			ltoe_r			mtoe_l			ltoe_l			asis_l			asis_r			psi_r			psi_l			mhnd_r			lhnd_r			mhnd_l			lhnd_l			l_lat_knee			r_med_wrist			l_lat_ankle			r_med_ankle			r_lat_knee			xiphoid			l_med_ankle			r_med_knee			l_med_elbow			navel			r_lat_elbow			r_lat_wrist			l_med_wrist			l_lat_elbow			l_med_knee			r_med_elbow			r_lat_ankle			l_lat_wrist			chin			T10			r_eye			l_eye			l_ear			r_ear			spinal_cord_8			spinal_cord_12			spinal_cord_27			spinal_cord_33			up_arm_r_0			up_arm_r_5			up_arm_l_0			up_arm_l_5			front_torso_11			front_torso_7			front_torso_4			front_torso_1			front_torso_10			thigh_r_2			thigh_r_3			thigh_l_1			thigh_l_5			shank_l_0			shank_l_4			shank_r_1			shank_r_2			foot_r_1			foot_r_3			foot_r_5			foot_r_6			foot_r_7			foot_l_1			foot_l_7			foot_l_0			foot_l_4			foot_l_5			foot_l_6			
		X1	Y1	Z1	X2	Y2	Z2	X3	Y3	Z3	X4	Y4	Z4	X5	Y5	Z5	X6	Y6	Z6	X7	Y7	Z7	X8	Y8	Z8	X9	Y9	Z9	X10	Y10	Z10	X11	Y11	Z11	X12	Y12	Z12	X13	Y13	Z13	X14	Y14	Z14	X15	Y15	Z15	X16	Y16	Z16	X17	Y17	Z17	X18	Y18	Z18	X19	Y19	Z19	X20	Y20	Z20	X21	Y21	Z21	X22	Y22	Z22	X23	Y23	Z23	X24	Y24	Z24	X25	Y25	Z25	X26	Y26	Z26	X27	Y27	Z27	X28	Y28	Z28	X29	Y29	Z29	X30	Y30	Z30	X31	Y31	Z31	X32	Y32	Z32	X33	Y33	Z33	X34	Y34	Z34	X35	Y35	Z35	X36	Y36	Z36	X37	Y37	Z37	X38	Y38	Z38	X39	Y39	Z39	X40	Y40	Z40	X41	Y41	Z41	X42	Y42	Z42	X43	Y43	Z43	X44	Y44	Z44	X45	Y45	Z45	X46	Y46	Z46	X47	Y47	Z47	X48	Y48	Z48	X49	Y49	Z49	X50	Y50	Z50	X51	Y51	Z51	X52	Y52	Z52	X53	Y53	Z53	X54	Y54	Z54	X55	Y55	Z55	X56	Y56	Z56	X57	Y57	Z57	X58	Y58	Z58	X59	Y59	Z59	X60	Y60	Z60	X61	Y61	Z61	X62	Y62	Z62	X63	Y63	Z63	X64	Y64	Z64	X65	Y65	Z65	X66	Y66	Z66	X67	Y67	Z67	X68	Y68	Z68	X69	Y69	Z69	X70	Y70	Z70	X71	Y71	Z71	X72	Y72	Z72	X73	Y73	Z73	X74	Y74	Z74	X75	Y75	Z75	X76	Y76	Z76	X77	Y77	Z77	X78	Y78	Z78	X79	Y79	Z79	X80	Y80	Z80	X81	Y81	Z81	X82	Y82	Z82	X83	Y83	Z83	X84	Y84	Z84	X85	Y85	Z85	
68	2.2666666666666666	-3943.603556467347	1481.0643699258094	-702.2279737559422	-3883.8349099346133	1268.2722472906876	-725.8561141128464	-4077.3771792392195	1163.7599398315035	-679.07644315066	-4042.448341312014	1143.677829326346	-533.1160790773167	-3985.0926633108324	912.5112289579938	-453.76364437590377	-3920.891197718393	914.7238669385548	-652.5089004671105	-4113.2644923681755	1116.83891293371	-828.453700636468	-4281.922742679391	946.1303558865374	-864.6473965274458	-4176.7101120329135	774.3676775644198	-810.126539343258	-4267.955971065427	775.1054270836438	-511.8734161144365	-4060.5745985677518	483.89141956161575	-642.267211526982	-4174.596302173224	127.65785092181791	-614.6366699755926	-4271.277280597924	761.0186593131301	-673.66464780478	-4371.489387092026	390.9814653830931	-740.8886028840052	-4686.876312159861	184.62812893847772	-706.5867394363542	-4207.133322746587	73.54913729127632	-608.5766371577366	-4753.469836428246	167.8036830806345	-697.4203688346873	-4036.296327703658	43.1046719869096	-706.8532105349998	-4057.8036772519235	31.06893405863611	-631.7932233955515	-4626.07573971253	2.149011352803404	-717.4566286701254	-4694.057947557807	25.963678047204425	-772.7462509894565	-4230.798139623203	805.9893942979111	-714.6453858340276	-4229.023559988541	824.4326961845375	-477.49553190834075	-4344.455147533725	845.438826389073	-557.2616644438808	-4341.219338433898	837.6137681702825	-637.9934862228115	-3897.205936842764	884.8663320021295	-715.1924214214757	-3892.888623259185	935.5023155115963	-732.1157849227567	-4166.267106031645	700.2338372127763	-795.6443385048246	-4116.062072001074	715.2378136626428	-785.1523142774204	-4383.164057864483	401.59029609686814	-786.3584485459185	-3914.617879337744	891.3558064587528	-642.2552430168624	-4715.270203238982	193.77676369576216	-751.1672127451726	-4181.2269720371805	117.45051514833233	-649.5814761701577	-4041.8441610987898	474.4160600897388	-606.1752825007844	-4089.721293066148	978.5299611996596	-678.0571705353652	-4681.591833780543	159.93004355853165	-683.517234573181	-4080.139880107197	484.3576194203723	-677.7998024226055	-4294.123119773573	964.2967853034629	-839.4528550073811	-4186.461982342817	795.2693314118228	-645.338262029103	-3951.149437224648	929.5940139134138	-448.34739986255903	-3937.1998188069124	938.5968529812692	-650.538901755809	-4199.196024208113	766.1829639158558	-826.5652657111848	-4261.855183998507	947.2794107126573	-895.6321668656789	-4346.638226983597	381.22994827458444	-701.2045629766563	-4019.2222452311553	907.600263958218	-461.6994020642805	-4157.2224019247005	106.7127322786297	-574.0066328930811	-4157.83985861694	794.8428121016449	-807.7715566737357	-3925.7200603486845	1199.5135929692196	-711.9396050901144	-4227.389243514439	1089.0235528965236	-615.8896616989001	-3863.503099719781	1299.4930219162236	-696.091473908311	-3886.4455922220795	1299.6295671919454	-764.5078792762549	-4001.2333897735884	1328.2083301528858	-783.7289899523729	-3947.721139291352	1325.6243368998578	-612.9145865432668	-4084.4071766449188	1236.5921120441965	-673.9477833945328	-4179.533187104279	1169.352066852324	-636.2834598254791	-4285.006632864229	958.86415174444	-582.8859714224346	-4222.588964323214	1074.545068736378	-618.5039908886841	-3989.660145326857	1023.0594744344759	-530.3686151781129	-4013.7232212096173	1016.8107350961282	-449.294032363897	-4138.837807384647	1079.4825386692423	-861.2824779244202	-4260.38838709229	1014.5958053143867	-834.43620533626	-4183.740841333128	836.7562175536935	-595.0077924844067	-4109.217376446055	892.8824299894097	-671.295218349877	-4087.68212246754	1013.6002565785309	-745.0338203154497	-4208.389111800721	864.7537045391142	-705.9782953150847	-4007.6713704202202	1038.5548060391416	-628.1459898884203	-4165.657632543324	618.6700887734488	-596.7177532229265	-4105.203187935839	584.6740421282251	-525.9935741655219	-4334.935817077102	490.24160254686973	-675.4559277558574	-4301.492570268606	679.380733922259	-790.0915799752872	-4624.563738447479	245.16009138523282	-778.9568776322557	-4477.9562785383605	294.6051912163954	-686.0134627786961	-4085.906457537316	327.61841343955	-579.1810666869598	-4132.904231637915	299.21470738716783	-664.7314099648935	-4042.669480716899	33.708970663746456	-682.5200161047846	-4045.8514405883284	31.64902783836973	-656.7310466686788	-4102.497289280971	63.89755800380781	-679.7576004299466	-4097.161484026273	62.804335132831426	-644.9458591696662	-4097.103627697649	45.72767110892844	-618.1203696338287	-4666.228692088503	8.08159522655702	-751.288735784029	-4710.917810147365	99.78647497200278	-764.1853952823714	-4675.9370279111745	12.011327449411302	-762.8554472321744	-4654.677912317601	3.711824880167358	-736.9863738215943	-4679.012693042241	54.496068697999625	-741.0550489996833	-4676.535612618009	86.76792792054988	-715.7655985110733	
69	2.3	-3934.6254370453257	1452.773214453924	-704.0524013283521	-3880.131801243002	1238.1505445242112	-723.5105818683318	-4078.152064756743	1138.4530100226339	-683.6972275365746	-4046.9655793495035	1131.951941330859	-544.9467091862535	-4026.1816060268065	907.510604083412	-434.40896719114176	-3948.5850153855745	887.2069278796868	-627.2636550348153	-4108.715707146371	1092.0532282655533	-833.6257236024783	-4271.405140575535	919.7241322855629	-885.8926481210867	-4182.041864563872	743.9926008309776	-817.5020571518062	-4286.137272894781	751.3740056732084	-533.1235191955825	-4043.899633005835	480.2956195138922	-647.8776315791089	-4172.44468212853	128.60621230555608	-626.4887945640728	-4286.683562636977	750.9042802123678	-695.5592040084292	-4380.618600907762	375.72952193090646	-741.5182884997145	-4700.811419235972	176.6433865898393	-708.8303762453908	-4207.545976872775	75.81213848913924	-621.8585616333861	-4769.249993377125	156.19054584454602	-702.6532627830615	-4027.4446633990506	38.34334779599782	-698.8652874875314	-4055.643457730957	36.33963151859641	-625.0937492037865	-4622.540629790586	6.294683758106795	-711.5847249734006	-4687.613003783299	22.951410825773095	-772.689559936306	-4244.969722192369	798.6286307181533	-731.9280180213624	-4247.286583036912	797.1593418424916	-494.07127315092066	-4361.012656386189	826.2156730359022	-573.7610131880324	-4356.402127901068	825.1264176604435	-654.7973358724802	-3924.2535439513417	850.1475360581294	-685.7125108843884	-3912.928805144792	898.5310658948232	-705.7081750706972	-4176.844072474966	669.5695824856674	-801.7282149272776	-4127.948682601033	682.5010968724304	-784.4723721936261	-4389.523105332315	383.1437012907598	-788.2062600132389	-3945.790095094005	864.1526559750237	-614.9653936654454	-4726.942019707681	183.23736886996232	-755.2096850549319	-4180.1303334624245	119.5406070347843	-661.5322038026378	-4026.786740650086	473.539333903993	-610.4454735217505	-4096.2040073848075	953.781719597512	-677.8489024034126	-4697.035058867213	153.4480798713939	-683.9739880039134	-4062.3108842667184	478.46225545163963	-683.9932036979244	-4286.721120021632	938.5939462077732	-863.0238008052613	-4200.895989570446	774.5116515715083	-647.5903839037479	-3990.89746514359	921.0689825304086	-427.738163669781	-3962.108896247052	912.8188198937304	-628.2160799571045	-4202.400476011191	736.6690120454435	-836.8599882317756	-4247.541993617794	920.0158056298802	-914.080382603494	-4358.342757423582	369.42651756020933	-699.6653706608099	-4059.894682333504	905.6486056952737	-444.98647338660595	-4155.24916577606	105.96588488509944	-586.7008553133959	-4162.814521665742	763.6660281994963	-812.5899209232737	-3924.5496621890647	1170.7499980084838	-710.8611727498869	-4235.116242822096	1070.1263186785845	-631.0149120532596	-3860.172929279493	1269.0347560485752	-693.1484016139678	-3880.197004257292	1269.2282597251199	-762.4750206568133	-3993.1920607697	1300.925510305473	-786.7615758701749	-3947.0265183417027	1298.3086733547752	-613.8173847520095	-4083.3507638948827	1211.585409226016	-681.48927879037	-4183.293130419178	1148.3470923124958	-649.8471950931422	-4299.236554322642	942.8256393973271	-598.8652690813324	-4230.560794443062	1055.4388905362682	-632.7559593335197	-4010.3624441020065	1007.317293462145	-523.2823428036199	-4041.572319817533	1014.1625929691107	-444.73139198035756	-4129.892481025299	1053.6359840880543	-868.3083035991816	-4253.8924250035925	989.1430268329535	-855.2612233711012	-4201.100044780217	817.6011503169038	-598.5498297258566	-4118.808117625465	868.9914783765432	-670.0392890426891	-4087.5301585357374	986.4739453900958	-745.4945834874684	-4215.567305531462	842.4686040377595	-712.031798006428	-4016.7888109861883	1013.1667573355936	-623.1411183905864	-4164.689650572856	604.7294001234623	-609.8135535644444	-4104.700057185086	578.0931765966676	-535.6236563745414	-4348.80819164545	480.13797761427327	-681.3475091957384	-4309.106724627727	660.6685600911171	-807.3074109165511	-4634.160643153692	231.3659983857915	-781.9571294118587	-4491.183255173015	284.72451333424226	-685.5860810016778	-4074.7127362009296	323.7368594464513	-588.0217671238082	-4124.405624830858	299.426337064496	-673.3097372252436	-4035.848272802653	32.2842092525186	-674.0929879784923	-4041.4030897308103	33.81318326946826	-648.671630324076	-4096.427487444476	60.18606299790233	-681.1636127372715	-4094.3847185803397	64.29667242300218	-646.2286264190202	-4096.426190144279	51.25069834009259	-617.3001345043174	-4659.94392184266	8.0672912832499	-748.8663318851468	-4713.466456325191	94.27616828077724	-765.4974442235736	-4668.970963238168	11.017601860798864	-761.2474297626992	-4649.286564582584	4.854018792537635	-733.5964733385819	-4678.790353453672	52.60277761920422	-739.708556742242	-4682.261583738196	84.62651069340369	-714.2213793499079	
70	2.3333333333333335	-3916.1588590485626	1422.9708945498323	-701.0851757963002	-3868.024624736486	1206.8167756233715	-720.361065891361	-4067.4868304909514	1115.1745562471049	-684.2716240936014	-4028.13982742994	1100.39831178589	-551.8660068252068	-4107.068462655642	906.3636403732635	-413.4994767354456	-4016.6572147856377	846.2926588817232	-591.9474641464591	-4088.8718350669687	1072.546545834611	-829.2185946891816	-4238.834666337251	898.9732849796746	-908.4680289016882	-4153.3205828119135	727.0580827114128	-826.7542361374173	-4288.275490260941	732.7767686857017	-552.2685893256195	-4026.49901497112	474.700365369906	-655.8004954399227	-4171.365863422682	129.39057168317248	-634.7887427976468	-4284.898571092464	736.9661717015978	-714.6167217275952	-4379.2339124696055	360.19307355598494	-745.1056624023227	-4701.813675650725	166.90153373201812	-702.5861748696203	-4208.389092414431	76.91831317327915	-631.3709369400599	-4771.029266258579	141.51720959585	-696.1615615871452	-4022.942595208523	40.65850358677535	-695.1302664578095	-4055.9630031791658	40.24352735434064	-623.3604455466331	-4604.744507229244	14.090192068453911	-709.7229763396804	-4670.173037533976	25.52953704695224	-771.6415525355499	-4242.970203846081	786.2476295467515	-748.5828619447775	-4251.001461045889	777.916931238582	-510.9919191295592	-4363.15613679179	807.7864559729181	-592.5853319122422	-4356.578675673089	809.0847333742255	-673.4826775140864	-3999.1782691731933	798.8211715170717	-645.0759134192145	-3969.3122484852006	838.8441802077401	-664.4465571451603	-4147.453352826051	652.9100281931928	-809.9536878068938	-4102.164085840566	667.8396418495358	-785.8344785392311	-4388.174426930953	365.8202026828226	-792.0251141591845	-4023.640966523519	824.6664381536784	-578.7530693560478	-4728.701742998099	173.00165261381858	-748.5986683135143	-4178.160023568182	120.17619298128662	-669.9772292593963	-4012.263203980802	468.1380279396606	-617.2073508805831	-4090.6904609549642	931.086956585324	-678.1964096247004	-4697.93380882159	144.13980615688118	-677.347839366026	-4042.8291957512306	473.3336881722471	-692.9318106816567	-4257.752189626245	917.1771384683359	-887.8675358935017	-4202.050830680717	754.8283012719088	-654.8404500543695	-4070.375642033402	907.532202752362	-402.2936202153246	-4020.24879032522	874.8147386533428	-595.6030119811763	-4170.323741709992	718.9055630898431	-848.8283503838818	-4210.989700165982	900.1497066657391	-932.7034806667097	-4356.9832242660395	355.72333998326076	-703.0024959519619	-4137.437043556903	914.6963519617572	-429.6313520449166	-4156.671917625332	106.57966783355943	-594.1058109881358	-4135.831935821003	747.5050995379794	-819.2090210314246	-3915.169146227039	1140.8395039313807	-710.3520046868192	-4229.887083471334	1051.3705982998376	-643.8126437232194	-3848.4015051839433	1236.7426757483215	-688.8423926630345	-3865.348442453587	1238.2220703461205	-758.9693763362535	-3976.0541913056168	1273.9158702792156	-787.824619744948	-3937.6301293632982	1268.219903038587	-613.0706618330862	-4070.9654775525282	1188.433861414457	-683.1659366805459	-4174.723042218527	1128.061181393266	-659.1182736990106	-4299.6378120753425	926.0743356379777	-615.7741120605374	-4225.585159229589	1036.5557345998448	-645.0443751755956	-4044.1059015969413	976.7857994485779	-509.3458821850143	-4079.7794858526977	1007.9627937899692	-439.01412013584076	-4103.902729794456	1034.512412353064	-867.3591066330408	-4227.337740429842	968.0266985076476	-874.3592458112017	-4205.095674768464	798.4596228713142	-606.3764510994407	-4116.021317136995	846.9784813044113	-671.4560106801854	-4075.760727899674	962.7887520741135	-745.2192018982272	-4209.734560669454	822.3983455888164	-720.8808933944368	-4014.438547695472	989.0916494524876	-617.8027088982865	-4155.515616953259	593.3130856324849	-623.4038395504331	-4099.655585829276	567.4510940237074	-545.7945947628251	-4347.320120969957	467.08406473600235	-689.2586683276411	-4307.455063433213	642.2333707311674	-822.55117498615	-4635.700422511983	219.11627908087453	-777.9988419115507	-4490.133434411481	272.06942881146	-685.3529598016744	-4066.467484569863	320.52847443507005	-595.1674460726947	-4114.039368037384	297.23095481283787	-681.9347440927302	-4032.8766597088998	35.15615650512827	-670.7984113505972	-4040.14042005324	37.30986133212392	-645.857711303851	-4093.3125970717388	61.69483073019736	-682.6956660330434	-4093.6752843516197	66.84543503711818	-647.840780912806	-4097.42137950204	54.59990541733212	-618.733454243524	-4641.221332477567	13.092540376057269	-747.9396287126549	-4705.841477523743	92.0150859555138	-760.9278819320665	-4650.302847888683	15.562045841322773	-760.385954038166	-4630.551209860634	10.401934217818127	-732.577920287437	-4666.269647159892	53.93560934018036	-736.6751703420241	-4674.706738633075	83.47757697406993	-709.4125078360353	
71	2.3666666666666667	-3889.9311347563726	1394.2960069208275	-696.8530497179131	-3846.784272036273	1177.024798064438	-715.3635229732737	-4049.5397013642355	1099.9129048396715	-685.5431944197858	-4023.218355721313	1049.77881205651	-544.3966789021351	-4184.528010766027	921.2267718774764	-401.29514860618804	-4099.1567713341165	803.2198814429722	-551.0032848501735	-4060.191196953447	1053.518989965798	-821.0785552270601	-4203.176845774043	884.6114711063316	-920.6895725570198	-4089.81445529694	734.0153561453548	-831.1662919870172	-4301.248811750842	701.8148848358769	-576.1716377774213	-4008.296727219463	470.4619576156347	-662.7175232124987	-4169.3657777788185	132.3411804830608	-642.7712912742386	-4299.0142055718425	726.569749997846	-736.6960096377309	-4376.9451016927005	344.3202689679447	-745.6941058116748	-4704.115551128345	159.38290657438753	-701.1419026277408	-4208.2338328340065	80.40544813305934	-640.6800752776708	-4773.884710183499	132.08541497573847	-695.4839664823066	-4019.24562307988	43.72848913300672	-692.725117982825	-4056.628040622627	43.656650783189896	-623.1264366781141	-4598.925453725464	16.971959055704076	-709.9866799270214	-4663.528727678181	26.611527339008635	-773.0672394315144	-4243.509588608806	763.3851006632044	-766.7661975273625	-4250.426690843406	726.1204947486233	-531.9325104698139	-4347.2915291572735	802.0404686112109	-602.5137082223373	-4341.830013519294	812.0244234075504	-682.8867232084865	-4093.1518889058907	743.9129754293316	-593.7621442897704	-4048.545071250021	767.3797105818759	-611.889097002313	-4071.3658756710815	662.855909232656	-810.9030290311813	-4029.463433020422	686.4767474874989	-787.6223799046167	-4383.720794698664	347.042470698907	-793.1860969393628	-4115.174073958243	787.9490728876588	-536.8326572030354	-4730.934238936213	165.79811657082885	-747.1520344895295	-4174.557839291445	122.5965040153778	-678.0895407240973	-3997.084226483058	465.7524994678954	-622.9898320696852	-4069.9755706089904	915.4870341230751	-679.7956292460428	-4700.749775640405	136.7233193559873	-675.7384018795163	-4022.7503318580098	468.81173449649015	-700.6259104498332	-4223.097392578144	900.2251582508604	-898.9405985539771	-4179.260854182763	737.4964347771373	-660.0517769250158	-4151.733493729268	911.978492861277	-383.62345284252393	-4091.6692243362504	830.1373284723994	-558.6947843593581	-4105.032289757144	722.0308753517493	-852.7909825722925	-4174.802268352459	888.8664568058272	-943.9460057349788	-4357.013706055963	344.30934297391826	-702.1963956452261	-4207.400826090373	936.2719004859766	-423.709443457148	-4158.0331561353705	109.8882142756844	-600.833404902534	-4076.1512168368245	757.4998655933348	-824.6350384745572	-3896.0635266321146	1112.2906913037718	-707.824419507672	-4212.270899814851	1033.5718520017329	-650.9146213966219	-3827.763625742019	1206.251827434824	-682.8358601296657	-3841.589663263789	1208.5415606858637	-753.6227158190298	-3949.9397597127067	1247.347912762409	-787.0406584958172	-3919.3414835192325	1239.7358441654771	-610.8203410222701	-4054.2395244944246	1173.1083675864556	-684.7781980363418	-4157.825348066104	1111.1132474408757	-664.3976915081463	-4280.976229322268	907.2235211530201	-625.1046654756908	-4207.68773616537	1018.8260500563928	-651.9441052249238	-4088.1980040297144	948.2913625377442	-491.2847910995138	-4119.305008780615	1001.556948325959	-433.0928847136338	-4073.206152140973	1018.9934175019364	-863.1001870950627	-4194.484079673755	950.2982825145867	-879.7794157051869	-4184.796628626552	781.1834870864325	-611.8592551341281	-4094.1762251520768	830.9937947749099	-673.7506568668084	-4053.0962670375484	947.2735107641153	-746.3137806345723	-4185.59220980519	804.7811976659601	-726.5255715440879	-3996.951411589704	974.8611453125744	-616.7997176504349	-4151.034311058191	576.5936816722733	-638.5477609008078	-4098.378638264886	555.3835479887916	-557.3696178112986	-4352.364205686411	456.65146575256426	-695.7847674249685	-4312.083561724948	623.8859674818108	-838.7654853128192	-4636.8800598981825	209.37808706746887	-777.064777107789	-4489.870158702782	259.416422645217	-685.079465856017	-4058.4691492165703	319.6473822820686	-601.2316782564636	-4102.03606690612	296.376662132345	-690.0844766909454	-4030.6662552547755	38.341619271162	-669.0280416298186	-4039.4515816568514	40.61150482293295	-644.5923129270676	-4090.2273808694335	64.87071689660172	-684.745157084734	-4092.7329655506924	70.17659781735144	-650.0019137618336	-4098.278503592094	58.06339315486464	-621.1273579901264	-4634.34675909754	15.155413102242582	-749.154241687106	-4703.943688231574	89.98939443521294	-760.5282805999408	-4643.284960661661	17.539425339314462	-761.7204038683926	-4623.876768260115	12.532528030195333	-733.643834546621	-4662.411597531636	53.67279791207491	-736.8563441311867	-4673.501255984679	81.36131922726925	-708.615763508668	
